<svg xmlns="http://www.w3.org/2000/svg" viewBox="0 0 180 180" fill="none">
  <!-- Background circle with gradient -->
  <defs>
    <linearGradient id="bgGrad" x1="0%" y1="0%" x2="100%" y2="100%">
      <stop offset="0%" style="stop-color:#ec4899;stop-opacity:1" />
      <stop offset="100%" style="stop-color:#8b5cf6;stop-opacity:1" />
    </linearGradient>
  </defs>
  <rect width="180" height="180" rx="40" fill="url(#bgGrad)"/>
  <!-- Stylized S for Skin -->
  <path d="M55 65c0-10 10-17 22-17s22 7 22 17c0 8-5 12-12 15s-10 7-10 14v6" stroke="white" stroke-width="12" stroke-linecap="round" fill="none"/>
  <circle cx="77" cy="125" r="7" fill="white"/>
  <!-- Hair strand accent -->
  <path d="M110 42c0 0 14 14 14 36s-7 28-7 42c0 8 4 14 12 20" stroke="white" stroke-width="11" stroke-linecap="round" fill="none"/>
  <path d="M130 48c0 0 10 10 10 28s-4 22-4 34" stroke="white" stroke-width="8" stroke-linecap="round" fill="none" opacity="0.7"/>
</svg>
