<svg xmlns="http://www.w3.org/2000/svg" viewBox="0 0 32 32" fill="none">
  <!-- Background circle with gradient -->
  <defs>
    <linearGradient id="bgGrad" x1="0%" y1="0%" x2="100%" y2="100%">
      <stop offset="0%" style="stop-color:#ec4899;stop-opacity:1" />
      <stop offset="100%" style="stop-color:#8b5cf6;stop-opacity:1" />
    </linearGradient>
  </defs>
  <circle cx="16" cy="16" r="15" fill="url(#bgGrad)"/>
  <!-- Stylized S+H letters for Skin & Hair -->
  <path d="M10 12c0-1.5 1.2-2.5 3-2.5s3 1 3 2.5c0 1-0.5 1.5-1.5 2s-1.5 1-1.5 2v1" stroke="white" stroke-width="2" stroke-linecap="round" fill="none"/>
  <circle cx="13" cy="21" r="1" fill="white"/>
  <!-- Hair strand accent -->
  <path d="M19 8c0 0 2 2 2 5s-1 4-1 6c0 1 0.5 2 1.5 3" stroke="white" stroke-width="2" stroke-linecap="round" fill="none"/>
  <path d="M22 9c0 0 1.5 1.5 1.5 4s-0.5 3-0.5 5" stroke="white" stroke-width="1.5" stroke-linecap="round" fill="none" opacity="0.7"/>
</svg>
